<?xml version="1.0" encoding="UTF-8"?>
<svg width="26px" height="26px" viewBox="0 0 26 26" version="1.1" xmlns="http://www.w3.org/2000/svg" xmlns:xlink="http://www.w3.org/1999/xlink">
    <title>portfolio</title>
    <defs>
        <rect id="path-1" x="0" y="0" width="12" height="5"></rect>
        <path d="M15,1 C15,3.209139 16.790861,5 19,5 C19.3455738,5 19.6809122,4.95617749 20.0007613,4.87378648 L20,13 C20,14.1045695 19.1045695,15 18,15 L2,15 C0.8954305,15 -3.0881846e-16,14.1045695 0,13 L0,2 C-1.3527075e-16,0.8954305 0.8954305,-2.41183085e-16 2,0 L15.1259956,8.50979585e-05 C15.0437452,0.319679398 15,0.654731075 15,1 Z" id="path-3"></path>
    </defs>
    <g id="Symbols" stroke="none" stroke-width="1" fill="none" fill-rule="evenodd">
        <g id="Group-18" transform="translate(3.000000, 3.500000)">
            <g id="Rectangle-Copy-10" transform="translate(4.000000, 0.000000)">
                <mask id="mask-2" fill="white">
                    <use xlink:href="#path-1"></use>
                </mask>
                <g id="Mask"></g>
                <rect stroke="#999999" stroke-width="1.5" mask="url(#mask-2)" x="2.25" y="0.75" width="7.5" height="4.5" rx="2"></rect>
            </g>
            <g id="Rectangle-+-Path-5-Copy-2-Mask" transform="translate(0.000000, 4.000000)">
                <mask id="mask-4" fill="white">
                    <use xlink:href="#path-3"></use>
                </mask>
                <g id="Mask"></g>
                <rect id="Rectangle" stroke="#999999" stroke-width="1.5" mask="url(#mask-4)" x="0.75" y="0.75" width="18.5" height="13.5" rx="2"></rect>
                <path d="M17.6297866,1.97519571 C17.9004958,1.66168431 18.3741002,1.62698628 18.6876116,1.89769549 C18.9726219,2.14379478 19.027208,2.55757602 18.8313895,2.86632085 L18.7651118,2.95552049 L12.5352176,10.1704314 C12.2749949,10.4717982 11.8307106,10.5133929 11.5207537,10.2827986 L11.4397897,10.2131515 L7.71940925,6.52880794 L0.852996407,15.3600587 C0.603225787,15.6418572 0.188772163,15.6910787 -0.117410155,15.4912771 L-0.205743757,15.4238495 C-0.48754227,15.1740789 -0.536763715,14.7596253 -0.336962155,14.4534429 L-0.269534551,14.3651093 L7.12371691,4.94134627 C7.38332091,4.64845345 7.8181419,4.60845676 8.12487406,4.83121762 L8.21274773,4.90593846 L11.9244093,8.58180794 L17.6297866,1.97519571 Z" id="Path-5-Copy-2" fill="#999999" fill-rule="nonzero" mask="url(#mask-4)"></path>
            </g>
            <circle id="Oval-Copy-3" fill="#999999" cx="19" cy="5" r="2.75"></circle>
        </g>
    </g>
</svg>