<?xml version="1.0" encoding="UTF-8"?>
<svg width="26px" height="26px" viewBox="0 0 26 26" version="1.1" xmlns="http://www.w3.org/2000/svg" xmlns:xlink="http://www.w3.org/1999/xlink">
    <title>portfolio</title>
    <g id="Symbols" stroke="none" stroke-width="1" fill="none" fill-rule="evenodd">
        <g id="portfolio" fill="#999999">
            <path d="M15.5,3.5 C16.6045695,3.5 17.5,4.3954305 17.5,5.5 L17.5,7.5 L18.1259956,7.5000851 C18.0437452,7.8196794 18,8.15473108 18,8.5 C18,8.66959047 18.010554,8.83671591 18.0310411,9.00075535 L5,9 C4.75454011,9 4.55039163,9.17687516 4.50805567,9.41012437 L4.5,9.5 L4.49972251,19.609 L10.1237169,12.4413463 C10.3833209,12.1484535 10.8181419,12.1084568 11.1248741,12.3312176 L11.2127477,12.4059385 L14.9244093,16.0818079 L19.0962325,11.2510374 C19.4423339,11.6162307 19.8565919,11.9161823 20.3186394,12.130525 L15.5352176,17.6704314 C15.2749949,17.9717982 14.8307106,18.0133929 14.5207537,17.7827986 L14.4397897,17.7131515 L10.7194093,14.0288079 L5.29872251,21 L21,21 C21.2454599,21 21.4496084,20.8231248 21.4919443,20.5898756 L21.5,20.5 L21.4992447,12.4689589 C21.6632841,12.489446 21.8304095,12.5 22,12.5 C22.3455738,12.5 22.6809122,12.4561775 23.0007613,12.3737865 L23,20.5 C23,21.6045695 22.1045695,22.5 21,22.5 L5,22.5 L4.82344927,22.4923144 L4.671,22.472 L4.545101,22.4480388 L4.44441987,22.4218225 L4.35061191,22.3922119 L4.25946695,22.3584246 C3.73587121,22.1494687 3.32147986,21.7260614 3.1247418,21.196834 L3.07235843,21.0349998 L3.05177779,20.9541099 L3.0259145,20.8227992 C3.00885412,20.7176065 3,20.6098373 3,20.5 L3,9.5 C3,8.3954305 3.8954305,7.5 5,7.5 L8.5,7.5 L8.5,5.5 C8.5,4.3954305 9.3954305,3.5 10.5,3.5 L15.5,3.5 Z M22,5.75 C23.5187831,5.75 24.75,6.98121694 24.75,8.5 C24.75,10.0187831 23.5187831,11.25 22,11.25 C20.4812169,11.25 19.25,10.0187831 19.25,8.5 C19.25,6.98121694 20.4812169,5.75 22,5.75 Z M15.5,5 L10.5,5 C10.2545401,5 10.0503916,5.17687516 10.0080557,5.41012437 L10,5.5 L10,7.5 L16,7.5 L16,5.5 C16,5.25454011 15.8231248,5.05039163 15.5898756,5.00805567 L15.5,5 Z" id="Shape"></path>
        </g>
    </g>
</svg>